<?xml version="1.0" encoding="utf-8"?>
<!-- Generator: Adobe Illustrator 22.0.1, SVG Export Plug-In . SVG Version: 6.00 Build 0)  -->
<svg version="1.1" id="레이어_1" xmlns="http://www.w3.org/2000/svg" xmlns:xlink="http://www.w3.org/1999/xlink" x="0px"
	 y="0px" viewBox="0 0 32 32" style="enable-background:new 0 0 32 32;" xml:space="preserve">
<style type="text/css">
	.st0{fill:#141E43;}
	.st1{fill:#FFFFFF;}
</style>
<circle class="st0" cx="16" cy="16" r="16"/>
<g>
	<path class="st1" d="M16,4.1l-5.2,7.4L8,23.2l8,4.7l8-4.7l-2.7-11.8L16,4.1z M21.1,11.5l-1.4,4.3l-3.6-6.3l0-5L21.1,11.5z M16,9.8
		l3.6,6.3l-2.2,7l-2.8,0l-2.2-7L16,9.8z M15.9,4.6l0,5l-3.6,6.2L11,11.5L15.9,4.6z M10.9,11.8l1.3,4.2l-3.8,6.6L10.9,11.8z
		 M12.3,16.3l2.1,6.7l-6,0L12.3,16.3z M8.5,23.2l6,0l1.4,4.4L8.5,23.2z M14.7,23.2l2.6,0L16,27.5L14.7,23.2z M16.1,27.6l1.4-4.4l6,0
		L16.1,27.6z M17.6,23l2.1-6.7l1.1,1.8l2.8,4.9L17.6,23z M21,18l-1.1-2l1.3-4.2l2.5,10.8L21,18z"/>
	<path class="st1" d="M16,28.1L16,28.1l-8.1-4.8l0-0.1l2.8-11.8L16,3.9l5.4,7.6l2.7,11.9L24,23.4l0,0l0,0L16,28.1z M17.6,23.3
		l-1.3,4l6.7-4L17.6,23.3z M8.9,23.3l6.7,4l-1.2-4H8.9z M14.9,23.3l1.1,3.7l1.2-3.7L14.9,23.3z M17.8,22.9l5.7,0l-3.7-6.3L17.8,22.9
		z M14.7,22.9l2.6,0l2.2-6.8L16,10l-3.5,6L14.7,22.9z M8.6,22.9l5.6,0l-2-6.3L8.6,22.9z M21.1,18l2.3,3.9l-2.2-9.5L20,16L21.1,18z
		 M10.9,12.3l-2.2,9.4L12,16L10.9,12.3z M16.2,9.5l3.5,6l1.3-4l-4.7-6.6L16.2,9.5z M11.1,11.5l1.2,3.9l3.4-5.9l0-4.6L11.1,11.5z"/>
</g>
</svg>
