<?xml version="1.0" encoding="UTF-8" standalone="no"?>
<svg width="40px" height="40px" viewBox="0 0 40 40" version="1.1" xmlns="http://www.w3.org/2000/svg" xmlns:xlink="http://www.w3.org/1999/xlink">
    <!-- Generator: Sketch 48.1 (47250) - http://www.bohemiancoding.com/sketch -->
    <title>medium</title>
    <desc>Created with Sketch.</desc>
    <defs></defs>
    <g id="Symbols" stroke="none" stroke-width="1" fill="none" fill-rule="evenodd">
        <g id="medium">
            <g id="Group-4">
                <g id="medium-m" transform="translate(10.000000, 11.000000)" fill-rule="nonzero">
                    <path d="M14.1950464,0.0193666146 C14.0866873,-0.0310090058 14,0.0193666146 14,0.141707407 L14,14.7434408 L20.4220846,17.9386944 C20.7399381,18.0970178 21,17.9386944 21,17.5788686 L21,3.52407049 C21,3.45210532 20.9638803,3.38733666 20.8988648,3.3585506 L14.1950464,0.0193666146 Z" id="XMLID_103_" fill="#D0D2D3"></path>
                    <path d="M7,11.4560873 L13.9157106,0.114102317 C13.9810216,0.0115924463 14.1189004,-0.0323403555 14.2277521,0.0262367136 L20.9112458,3.39441819 C20.9910703,3.43835099 21.0273542,3.54086086 20.9765568,3.62140433 L14.0318191,15 L7,11.4560873 Z" id="XMLID_102_" fill="#A6A8AB"></path>
                    <path d="M0.453231845,1.09304173 C0.0167166506,0.885061293 -0.131254602,1.03758028 0.12769509,1.4327431 L6.83079282,11.6376497 L14,15 L6.8751842,4.15035409 C6.84558995,4.10182532 6.80119857,4.06716192 6.74940863,4.03943119 L0.453231845,1.09304173 Z" id="XMLID_101_" fill="#808184"></path>
                    <path d="M7,18.5782639 C7,18.9323106 6.73993808,19.0984959 6.42208462,18.9395361 L0.390092879,15.9193004 C0.173374613,15.8109188 0,15.5291265 0,15.2906868 L0,1.28055068 C0,1.04211102 0.173374613,0.933729363 0.390092879,1.04211102 L6.91331269,4.30801176 C6.96388029,4.33691354 7,4.38749165 7,4.4452952 L7,18.5782639 Z" id="XMLID_100_" fill="#FFFFFF"></path>
                </g>
                <circle id="Oval" stroke="#FFFFFF" cx="20" cy="20" r="19.5"></circle>
            </g>
        </g>
    </g>
</svg>