<?xml version="1.0" encoding="UTF-8" standalone="no"?>
<svg width="40px" height="40px" viewBox="0 0 40 40" version="1.1" xmlns="http://www.w3.org/2000/svg" xmlns:xlink="http://www.w3.org/1999/xlink">
    <!-- Generator: Sketch 48.1 (47250) - http://www.bohemiancoding.com/sketch -->
    <title>twitter</title>
    <desc>Created with Sketch.</desc>
    <defs></defs>
    <g id="Symbols" stroke="none" stroke-width="1" fill="none" fill-rule="evenodd">
        <g id="twitter">
            <g id="Group-4">
                <path d="M29.3612606,15.1139851 C28.6793288,15.4161543 27.9476259,15.621082 27.1788367,15.7125713 C27.9638227,15.2425001 28.5647098,14.4969012 28.8495015,13.6111921 C28.1131665,14.0465083 27.3003886,14.3626038 26.434358,14.5339571 C25.7408614,13.7941406 24.7544293,13.3333333 23.660311,13.3333333 C21.5612629,13.3333333 19.8593247,15.0352716 19.8593247,17.1331692 C19.8593247,17.4307064 19.8928991,17.7213107 19.9577469,17.9991998 C16.7993357,17.8405618 13.9986775,16.3273544 12.1242355,14.0279804 C11.7965752,14.5883603 11.6101755,15.2413194 11.6101755,15.9383278 C11.6101755,17.2570522 12.2816928,18.42062 13.3005489,19.1013711 C12.6776522,19.0805423 12.0918115,18.9091889 11.5789323,18.624367 L11.5789323,18.6718373 C11.5789323,20.512705 12.8895431,22.0490723 14.6273565,22.3987421 C14.3089602,22.4844187 13.9732166,22.531889 13.625878,22.531889 C13.3804431,22.531889 13.1430915,22.5075787 12.9103719,22.4612588 C13.3943088,23.9721653 14.7975594,25.0708853 16.4601408,25.1010083 C15.1599444,26.1198643 13.5205229,26.7253834 11.7398712,26.7253834 C11.43307,26.7253834 11.1308705,26.7068555 10.8333333,26.6732811 C12.5155932,27.7535034 14.5127677,28.3833329 16.6592861,28.3833329 C23.6511076,28.3833329 27.4729529,22.5921049 27.4729529,17.5696661 L27.4602074,17.0776156 C28.2069567,16.5449973 28.852983,15.8758111 29.3612606,15.1139851 Z" id="Shape" fill="#FFFFFF" fill-rule="nonzero"></path>
                <circle id="Oval" stroke="#FFFFFF" cx="20" cy="20" r="19.5"></circle>
            </g>
        </g>
    </g>
</svg>