<svg xmlns="http://www.w3.org/2000/svg" viewBox="0 0 913.96 1080"><defs><style>.cls-1{fill:#fff;}</style></defs><title>자산 11</title><g id="레이어_2" data-name="레이어 2"><g id="Layer_1" data-name="Layer 1"><polygon class="cls-1" points="31.38 994.89 130.62 994.89 130.62 966.52 31.38 966.52 31.38 914.98 142.82 914.98 142.82 886.62 0 886.62 0 1076.7 142.82 1076.7 142.82 1048.34 31.38 1048.34 31.38 994.89"/><path class="cls-1" d="M347.69,912.11a93.22,93.22,0,0,0-30.39-21,97,97,0,0,0-39.13-7.75,95.53,95.53,0,0,0-39.12,7.88,95.67,95.67,0,0,0-50.77,52.55,101.49,101.49,0,0,0-7.13,37.91v.55a101.4,101.4,0,0,0,7.13,37.9,97,97,0,0,0,19.84,31.1,93.08,93.08,0,0,0,30.38,21,97.25,97.25,0,0,0,39.13,7.73,95.86,95.86,0,0,0,39.13-7.86,95.75,95.75,0,0,0,50.76-52.56,101.38,101.38,0,0,0,7.14-37.91v-.55a101.38,101.38,0,0,0-7.14-37.91A97.42,97.42,0,0,0,347.69,912.11ZM342,982.22a75.53,75.53,0,0,1-4.74,26.73,69,69,0,0,1-13.1,21.89,60.89,60.89,0,0,1-46,20.25,60.7,60.7,0,0,1-26-5.59,64.52,64.52,0,0,1-20.41-14.93,67.42,67.42,0,0,1-13.25-22,76.6,76.6,0,0,1-4.73-26.87v-.55a75.52,75.52,0,0,1,4.73-26.74,69.08,69.08,0,0,1,13.11-21.88,60.8,60.8,0,0,1,46-20.25,60.7,60.7,0,0,1,26,5.59A64.49,64.49,0,0,1,324,932.76a67.26,67.26,0,0,1,13.25,22A76.62,76.62,0,0,1,342,981.67Z"/><path class="cls-1" d="M537,987a66.35,66.35,0,0,0-19.1-11.22,219.54,219.54,0,0,0-26.72-8.46c-9.36-2.25-16.82-4.33-22.78-6.35a60.58,60.58,0,0,1-14.29-6.57,20,20,0,0,1-7.39-8.12,24.58,24.58,0,0,1-2-10.19v-.56c0-6.72,2.9-12.44,8.64-17S467,911.7,477.1,911.7a72,72,0,0,1,26.46,5.15A118.54,118.54,0,0,1,529,931l16.93-23.84A111.86,111.86,0,0,0,515.31,890c-11.09-4-23.76-6.11-37.66-6.11a80.43,80.43,0,0,0-26,4.06,62.34,62.34,0,0,0-20.3,11.21,50.63,50.63,0,0,0-18,39.41v.54c0,8.6,1.4,16,4.17,22.09a41.34,41.34,0,0,0,12.08,15.39,73.58,73.58,0,0,0,19.81,10.83,215.33,215.33,0,0,0,27.25,8.06,191.06,191.06,0,0,1,22,6.07,53.64,53.64,0,0,1,13.48,6.74,21,21,0,0,1,6.94,8,23.3,23.3,0,0,1,1.89,9.63v.55c0,7.64-3.25,13.85-9.64,18.44s-14.87,6.78-25.46,6.78c-12.19,0-23.24-2.2-32.84-6.55a118.41,118.41,0,0,1-27.72-18l-19,22.56A115.05,115.05,0,0,0,442.88,1072a120.44,120.44,0,0,0,42.17,7.48,94.35,94.35,0,0,0,27.41-3.79,61.12,61.12,0,0,0,21.23-11.06,51,51,0,0,0,13.74-17.77,55.21,55.21,0,0,0,4.94-23.7v-.55a49.61,49.61,0,0,0-3.9-20.3A44.2,44.2,0,0,0,537,987Z"/><polygon class="cls-1" points="666.22 967.24 612.71 886.62 575.46 886.62 650.85 997.64 650.85 1076.7 682.78 1076.7 682.78 996.81 682.97 996.54 758.17 886.62 722.02 886.62 667.09 968.56 666.22 967.24"/><path class="cls-1" d="M898.63,987a66.35,66.35,0,0,0-19.1-11.22,219,219,0,0,0-26.72-8.46C843.45,965.07,836,963,830,961a60.89,60.89,0,0,1-14.3-6.57,20,20,0,0,1-7.38-8.13,24.43,24.43,0,0,1-2-10.18v-.56c0-6.72,2.91-12.44,8.64-17s13.63-6.82,23.72-6.82a72.14,72.14,0,0,1,26.47,5.15A118.82,118.82,0,0,1,890.61,931l16.92-23.84A111.86,111.86,0,0,0,876.9,890c-11.08-4-23.76-6.11-37.66-6.11a80.43,80.43,0,0,0-26,4.06A62.26,62.26,0,0,0,793,899.15a50.63,50.63,0,0,0-18,39.41v.54c0,8.6,1.4,16,4.17,22.09a41.57,41.57,0,0,0,12.08,15.39A73.89,73.89,0,0,0,811,987.41a215.51,215.51,0,0,0,27.26,8.06,191.12,191.12,0,0,1,22,6.07,53.32,53.32,0,0,1,13.48,6.74,21,21,0,0,1,6.94,8,23.3,23.3,0,0,1,1.89,9.63v.55c0,7.64-3.25,13.85-9.64,18.44s-14.87,6.78-25.46,6.78c-12.18,0-23.23-2.2-32.84-6.55a118.18,118.18,0,0,1-27.72-18l-19,22.56A115.05,115.05,0,0,0,804.47,1072a120.49,120.49,0,0,0,42.18,7.48,94.4,94.4,0,0,0,27.41-3.79,61.33,61.33,0,0,0,21.22-11.06A50.88,50.88,0,0,0,909,1046.83a55.24,55.24,0,0,0,4.94-23.7v-.55a49.51,49.51,0,0,0-3.9-20.3A44.2,44.2,0,0,0,898.63,987Z"/><path class="cls-1" d="M372.51,131.08c122,0,226.25,76.56,267.69,184.47-.3-148.26-120-268.36-267.69-268.36s-267.39,120.1-267.7,268.36C146.25,207.64,250.47,131.08,372.51,131.08Z"/><path class="cls-1" d="M209.77,323.48A286.5,286.5,0,0,1,502.65,182.82c-128-73.86-291.36-29.75-365.19,98.72S107.29,574.21,235,648.61C162.65,558.6,148.76,429.65,209.77,323.48Z"/><path class="cls-1" d="M294.29,561.22c-61-106.17-47.12-235.12,25.18-325.13C191.81,310.49,148.14,474.7,222,603.16s237.23,172.58,365.2,98.72A286.5,286.5,0,0,1,294.29,561.22Z"/><path class="cls-1" d="M541.47,606.54c-122,0-226.25-76.56-267.7-184.47.31,148.26,120,268.36,267.7,268.36s267.39-120.1,267.7-268.36C767.72,530,663.5,606.54,541.47,606.54Z"/><path class="cls-1" d="M704.18,414.16A286.51,286.51,0,0,1,411.31,554.82c128,73.86,291.36,29.74,365.19-98.72S806.66,163.42,679,89C751.31,179,765.2,308,704.18,414.16Z"/><path class="cls-1" d="M619.74,176.45c61,106.17,47.12,235.12-25.18,325.13C722.22,427.18,765.88,263,692.05,134.51S454.83-38.07,326.86,35.79A286.5,286.5,0,0,1,619.74,176.45Z"/></g></g></svg>