<?xml version="1.0" encoding="utf-8"?>
<!-- Generator: Adobe Illustrator 22.0.1, SVG Export Plug-In . SVG Version: 6.00 Build 0)  -->
<svg version="1.1" id="레이어_1" xmlns="http://www.w3.org/2000/svg" xmlns:xlink="http://www.w3.org/1999/xlink" x="0px"
	 y="0px" viewBox="0 0 64 64" style="enable-background:new 0 0 64 64;" xml:space="preserve">
<style type="text/css">
	.st0{fill:#FFFFFF;}
	.st1{enable-background:new    ;}
</style>
<title>logo</title>
<desc>Created with Sketch.</desc>
<g id="Symbols">
	<g id="logo">
		<g id="Group-5">
			<path id="Shape" class="st0" d="M31.7,0.9L21.6,15.2L16.2,38l15.4,9.1L47.2,38l-5.2-22.8L31.7,0.9z M41.5,15.3l-2.7,8.3l-7-12.1
				V1.9L41.5,15.3z M31.7,12l7,12.2l-4.3,13.5H29L24.7,24L31.7,12z M31.5,1.9v9.6l-6.9,12L22,15.3L31.5,1.9z M21.7,16l2.5,8L17,36.7
				L21.7,16z M24.5,24.6l4.1,13H16.9L24.5,24.6z M17.1,38h11.6l2.7,8.5L17.1,38z M29.2,38h5.1l-2.6,8.3L29.2,38z M32,46.5l2.7-8.5
				l11.7,0L32,46.5z M34.8,37.6l4.1-13l2.1,3.6l5.5,9.5L34.8,37.6z M41.3,27.9l-2.2-3.8l2.6-8.2l4.8,20.9L41.3,27.9z"/>
			<g class="st1">
				<path class="st0" d="M18.9,62.1v0.8H13v-8.4h5.8v0.8h-4.9v3h4.3V59h-4.3v3.1H18.9z"/>
				<path class="st0" d="M22.3,62.4c-0.7-0.4-1.2-0.9-1.6-1.5c-0.4-0.6-0.6-1.4-0.6-2.2s0.2-1.5,0.6-2.2c0.4-0.6,0.9-1.2,1.6-1.5
					c0.7-0.4,1.4-0.6,2.3-0.6s1.6,0.2,2.2,0.6c0.7,0.4,1.2,0.9,1.6,1.5c0.4,0.7,0.6,1.4,0.6,2.2s-0.2,1.5-0.6,2.2
					c-0.4,0.7-0.9,1.2-1.6,1.5c-0.7,0.4-1.4,0.6-2.2,0.6S23,62.7,22.3,62.4z M26.4,61.7c0.5-0.3,1-0.7,1.3-1.2
					c0.3-0.5,0.5-1.1,0.5-1.8c0-0.7-0.2-1.2-0.5-1.8c-0.3-0.5-0.7-0.9-1.3-1.2c-0.5-0.3-1.1-0.4-1.8-0.4c-0.7,0-1.3,0.1-1.8,0.4
					c-0.5,0.3-1,0.7-1.3,1.2c-0.3,0.5-0.5,1.1-0.5,1.8c0,0.7,0.2,1.2,0.5,1.8c0.3,0.5,0.7,0.9,1.3,1.2c0.5,0.3,1.1,0.4,1.8,0.4
					C25.3,62.1,25.9,62,26.4,61.7z"/>
				<path class="st0" d="M31.5,62.6c-0.6-0.2-1-0.5-1.3-0.8l0.3-0.7c0.3,0.3,0.7,0.5,1.2,0.7c0.5,0.2,1,0.3,1.6,0.3
					c0.8,0,1.3-0.1,1.7-0.4c0.4-0.3,0.6-0.6,0.6-1.1c0-0.3-0.1-0.6-0.3-0.8c-0.2-0.2-0.5-0.4-0.7-0.5c-0.3-0.1-0.7-0.2-1.2-0.4
					c-0.6-0.2-1.1-0.3-1.5-0.5c-0.4-0.1-0.7-0.4-1-0.7c-0.3-0.3-0.4-0.7-0.4-1.2c0-0.4,0.1-0.8,0.3-1.2s0.6-0.6,1-0.8
					c0.5-0.2,1-0.3,1.7-0.3c0.5,0,0.9,0.1,1.4,0.2c0.5,0.1,0.9,0.3,1.2,0.5l-0.3,0.7c-0.4-0.2-0.7-0.4-1.1-0.5
					c-0.4-0.1-0.8-0.2-1.2-0.2c-0.7,0-1.3,0.1-1.7,0.4c-0.4,0.3-0.6,0.6-0.6,1.1c0,0.3,0.1,0.6,0.3,0.8c0.2,0.2,0.5,0.4,0.8,0.5
					c0.3,0.1,0.7,0.2,1.2,0.4c0.6,0.2,1.1,0.3,1.5,0.4c0.4,0.1,0.7,0.4,1,0.7c0.3,0.3,0.4,0.7,0.4,1.2c0,0.4-0.1,0.8-0.3,1.2
					c-0.2,0.3-0.6,0.6-1,0.8c-0.5,0.2-1.1,0.3-1.7,0.3C32.7,62.9,32.1,62.8,31.5,62.6z"/>
				<path class="st0" d="M41.1,60v2.9h-0.9V60l-3.4-5.5h0.9l2.9,4.7l2.9-4.7h0.9L41.1,60z"/>
				<path class="st0" d="M46.1,62.6c-0.6-0.2-1-0.5-1.3-0.8l0.3-0.7c0.3,0.3,0.7,0.5,1.2,0.7c0.5,0.2,1,0.3,1.6,0.3
					c0.8,0,1.3-0.1,1.7-0.4c0.4-0.3,0.6-0.6,0.6-1.1c0-0.3-0.1-0.6-0.3-0.8c-0.2-0.2-0.5-0.4-0.7-0.5c-0.3-0.1-0.7-0.2-1.2-0.4
					c-0.6-0.2-1.1-0.3-1.5-0.5c-0.4-0.1-0.7-0.4-1-0.7c-0.3-0.3-0.4-0.7-0.4-1.2c0-0.4,0.1-0.8,0.3-1.2s0.6-0.6,1-0.8
					c0.5-0.2,1-0.3,1.7-0.3c0.5,0,0.9,0.1,1.4,0.2c0.5,0.1,0.9,0.3,1.2,0.5l-0.3,0.7c-0.4-0.2-0.7-0.4-1.1-0.5
					c-0.4-0.1-0.8-0.2-1.2-0.2c-0.7,0-1.3,0.1-1.7,0.4c-0.4,0.3-0.6,0.6-0.6,1.1c0,0.3,0.1,0.6,0.3,0.8s0.5,0.4,0.8,0.5
					c0.3,0.1,0.7,0.2,1.2,0.4c0.6,0.2,1.1,0.3,1.5,0.4c0.4,0.1,0.7,0.4,1,0.7c0.3,0.3,0.4,0.7,0.4,1.2c0,0.4-0.1,0.8-0.3,1.2
					c-0.2,0.3-0.6,0.6-1,0.8c-0.5,0.2-1.1,0.3-1.7,0.3C47.3,62.9,46.7,62.8,46.1,62.6z"/>
			</g>
		</g>
	</g>
</g>
</svg>
